HIERARCHY
ROOT Hip
{
	OFFSET 0 1.131 0.0052
	CHANNELS 6 Xposition Yposition Zposition Xrotation Yrotation Zrotation
	JOINT Abdomen
	{
		OFFSET 0 -0.047353 -0.05
		CHANNELS 3 Xrotation Zrotation Yrotation
		JOINT Chest
		{
			OFFSET 0 0.132153 0.007439
			CHANNELS 3 Xrotation Zrotation Yrotation
			JOINT Neck
			{
				OFFSET 0 0.3078 0.006161
				CHANNELS 3 Xrotation Zrotation Yrotation
				JOINT Head_comp
				{
					OFFSET 0 0.0884 0.013
					CHANNELS 3 Xrotation Yrotation Zrotation
					End Site
					{
						OFFSET -0 0.156 0.0624
					}
				}
			}
			JOINT Left_Collar
			{
				OFFSET 0.02282 0.250342 0.017193
				CHANNELS 2 Yrotation Zrotation
				JOINT Left_Shoulder
				{
					OFFSET 0.15421 0 0
					CHANNELS 3 Xrotation Yrotation Zrotation
					JOINT Left_Forearm
					{
						OFFSET 0.265212 0 0
						CHANNELS 2 Yrotation Xrotation
						JOINT Left_Hand
						{
							OFFSET 0.27571 0 0
							CHANNELS 2 Zrotation Yrotation
							JOINT L1ProxPhalanx
							{
								OFFSET 0.014142 0.001733 0.014142
								CHANNELS 3 Yrotation Zrotation Xrotation
								JOINT L1MidPhalanx
								{
									OFFSET 0.04 0 0
									CHANNELS 1 Zrotation
									JOINT L1DistPhalanx
									{
										OFFSET 0.035 0 0
										CHANNELS 1 Zrotation
										End Site
										{
											OFFSET 0.029 -0 -0
										}
									}
								}
							}
							JOINT L2ProxPhalanx
							{
								OFFSET 0.0821037 0.001578 0.0219996
								CHANNELS 2 Yrotation Zrotation
								JOINT L2MidPhalanx
								{
									OFFSET 0.04 0 0
									CHANNELS 1 Zrotation
									JOINT L2DistPhalanx
									{
										OFFSET 0.028 0 0
										CHANNELS 1 Zrotation
										End Site
										{
											OFFSET 0.02 -0 -0
										}
									}
								}
							}
							JOINT L3ProxPhalanx
							{
								OFFSET 0.083 0 0
								CHANNELS 2 Yrotation Zrotation
								JOINT L3MidPhalanx
								{
									OFFSET 0.053 0 0
									CHANNELS 1 Zrotation
									JOINT L3DistPhalanx
									{
										OFFSET 0.03 0 0
										CHANNELS 1 Zrotation
										End Site
										{
											OFFSET 0.023 -0 -0
										}
									}
								}
							}
							JOINT L4ProxPhalanx
							{
								OFFSET 0.077274 -0.000761 -0.0207055
								CHANNELS 2 Yrotation Zrotation
								JOINT L4MidPhalanx
								{
									OFFSET 0.05 0 0
									CHANNELS 1 Zrotation
									JOINT L4DistPhalanx
									{
										OFFSET 0.03 0 0
										CHANNELS 1 Zrotation
										End Site
										{
											OFFSET 0.023 -0 -0
										}
									}
								}
							}
							JOINT L5ProxPhalanx
							{
								OFFSET 0.0675499 -0.001644 -0.039
								CHANNELS 2 Yrotation Zrotation
								JOINT L5MidPhalanx
								{
									OFFSET 0.04 0 0
									CHANNELS 1 Zrotation
									JOINT L5DistPhalanx
									{
										OFFSET 0.021 0 0
										CHANNELS 1 Zrotation
										End Site
										{
											OFFSET 0.022 -0 -0
										}
									}
								}
							}
						}
					}
				}
			}
			JOINT Right_Collar
			{
				OFFSET -0.02282 0.250342 0.017193
				CHANNELS 2 Yrotation Zrotation
				JOINT Right_Shoulder
				{
					OFFSET -0.15421 0 0
					CHANNELS 3 Xrotation Yrotation Zrotation
					JOINT Right_Forearm
					{
						OFFSET -0.265212 0 0
						CHANNELS 2 Yrotation Xrotation
						JOINT Right_Hand
						{
							OFFSET -0.27571 3e-006 0
							CHANNELS 2 Zrotation Yrotation
							JOINT R1ProxPhalanx
							{
								OFFSET -0.014142 0.001733 0.014142
								CHANNELS 3 Yrotation Zrotation Xrotation
								JOINT R1MidPhalanx
								{
									OFFSET -0.04 0 0
									CHANNELS 1 Zrotation
									JOINT R1DistPhalanx
									{
										OFFSET -0.035 0 0
										CHANNELS 1 Zrotation
										End Site
										{
											OFFSET -0.029 -0 -0
										}
									}
								}
							}
							JOINT R2ProxPhalanx
							{
								OFFSET -0.0821037 0.001578 0.0219996
								CHANNELS 2 Yrotation Zrotation
								JOINT R2MidPhalanx
								{
									OFFSET -0.04 0 0
									CHANNELS 1 Zrotation
									JOINT R2DistPhalanx
									{
										OFFSET -0.028 0 0
										CHANNELS 1 Zrotation
										End Site
										{
											OFFSET -0.02 -0 -0
										}
									}
								}
							}
							JOINT R3ProxPhalanx
							{
								OFFSET -0.083 0 0
								CHANNELS 2 Yrotation Zrotation
								JOINT R3MidPhalanx
								{
									OFFSET -0.053 0 0
									CHANNELS 1 Zrotation
									JOINT R3DistPhalanx
									{
										OFFSET -0.03 0 0
										CHANNELS 1 Zrotation
										End Site
										{
											OFFSET -0.023 -0 -0
										}
									}
								}
							}
							JOINT R4ProxPhalanx
							{
								OFFSET -0.077274 -0.000761 -0.0207055
								CHANNELS 2 Yrotation Zrotation
								JOINT R4MidPhalanx
								{
									OFFSET -0.05 0 0
									CHANNELS 1 Zrotation
									JOINT R4DistPhalanx
									{
										OFFSET -0.03 0 0
										CHANNELS 1 Zrotation
										End Site
										{
											OFFSET -0.023 -0 -0
										}
									}
								}
							}
							JOINT R5ProxPhalanx
							{
								OFFSET -0.0675499 -0.001644 -0.039
								CHANNELS 2 Yrotation Zrotation
								JOINT R5MidPhalanx
								{
									OFFSET -0.04 0 0
									CHANNELS 1 Zrotation
									JOINT R5DistPhalanx
									{
										OFFSET -0.021 0 0
										CHANNELS 1 Zrotation
										End Site
										{
											OFFSET -0.022 -0 -0
										}
									}
								}
							}
						}
					}
				}
			}
		}
	}
	JOINT Left_Thigh
	{
		OFFSET 0.1118 -0.1612 -0.0442
		CHANNELS 3 Xrotation Zrotation Yrotation
		JOINT Left_Shin
		{
			OFFSET 0 -0.477856 0
			CHANNELS 1 Xrotation
			JOINT Left_Foot
			{
				OFFSET 0 -0.431952 0
				CHANNELS 2 Xrotation Zrotation
				JOINT Left_Toe
				{
					OFFSET 0 -0.0442 0.119
					CHANNELS 1 Xrotation
					End Site
					{
						OFFSET -0 -0 0.07
					}
				}
			}
		}
	}
	JOINT Right_Thigh
	{
		OFFSET -0.1118 -0.1612 -0.0442
		CHANNELS 3 Xrotation Zrotation Yrotation
		JOINT Right_Shin
		{
			OFFSET 0 -0.477856 0
			CHANNELS 1 Xrotation
			JOINT Right_Foot
			{
				OFFSET 0 -0.431952 0
				CHANNELS 2 Xrotation Zrotation
				JOINT Right_Toe
				{
					OFFSET 0 -0.0442 0.119
					CHANNELS 1 Xrotation
					End Site
					{
						OFFSET -0 -0 0.07
					}
				}
			}
		}
	}
}
MOTION
Frames: 13
Frame Time: 0.009975
-0.10756 -0.0600381 0.0471213 -8.76247e-013 4.56089e-008 -5.10918e-006 0 0 0 0 0 0 0 0 0 0 0 0 0 0 -0 0 -0 0 0 0 0 -14.3963 -72.7393 130.79 -7.98308 -3.12944 0.103763 -22.2698 -10.571 -15.5823 4.54436 0.243278 -0.890033 -3.54162 2.07342 1.76139 -4.69138 -0.324638 5.13794 3.80897 -39.7239 36.732 0 0 -0 0 -0 0 0 0 0 37.9386 28.008 73.698 26.2405 28.4472 13.118 18.2167 29.0248 19.6359 0 22.4358 32.6146 28.1246 -8.63175 30.7051 32.2053 23.7634 -7.83088 26.7354 35.1526 30.0193 0.500053 -0.267009 -0.00233043 0.0240216 -0.524069 0.267024 0 0.511458 -0.267008 -0.00238358 1.70755e-006 -0.511454 0.267024 0 
-0.10756 -0.0600381 0.0471213 -8.76247e-013 4.56089e-008 -5.10918e-006 0 0 0 0 0 0 0 0 0 0 0 0 0 0 -0 0 -0 0 0 0 0 -14.3963 -72.7393 130.79 -7.98308 -3.12944 0.103763 -22.2698 -10.571 -15.5823 4.54436 0.243278 -0.890033 -3.54162 2.07342 1.76139 -4.69138 -0.324638 5.13794 3.80897 -39.7239 36.732 0 0 -0 0 -0 0 0 0 0 37.9386 28.008 73.698 26.2405 28.4472 13.118 18.2167 29.0248 19.6359 0 22.4358 32.6146 28.1246 -8.63175 30.7051 32.2053 23.7634 -7.83088 26.7354 35.1526 30.0193 0.500053 -0.267009 -0.00233043 0.0240216 -0.524069 0.267024 0 0.511458 -0.267008 -0.00238358 1.70755e-006 -0.511454 0.267024 0 
-0.101406 -0.0600623 0.0346121 4.17803e-013 -2.46452e-008 -5.08405e-006 0 -0 0 0 -0 0 0 -0 0 -0.709958 0.291014 -9.06038e-006 -8.73831 -15.3557 -23.7592 -23.5184 -22.864 -25.6902 13.6064 9.45514 -5.16254 -15.1304 -72.5919 130.011 -8.11816 -3.21379 0.0982529 -22.3085 -10.7181 -15.5794 4.52223 0.0823918 -1.08558 -3.61392 2.07063 1.59258 -4.86792 -0.413015 5.14217 3.66992 -39.6952 36.4484 8.73831 15.3557 -23.7592 23.5184 22.864 25.6902 13.6064 -9.45514 5.16254 15.1304 72.5919 130.011 8.11816 3.21379 -0.0982529 22.3085 10.7181 15.5794 -4.52223 -0.0823918 1.08558 3.61392 -2.07063 -1.59258 4.86792 0.413015 -5.14217 -3.66992 39.6952 -36.4484 -0.287701 -0.654591 0.00329515 0.0239015 0.263781 0.654604 0 -0.276353 -0.654591 0.00316518 1.69901e-006 0.276333 0.654604 0 
-0.10135 -0.060068 0.0336083 4.19897e-013 -2.4769e-008 -5.1096e-006 0 -0 0 0 -0 0 0 -0 0 -0.711635 0.290687 -2.23148e-010 -8.78195 -15.4327 -23.7609 -23.7514 -22.3032 -25.8759 13.6736 9.50262 -5.18842 -14.3963 -72.7393 130.79 -7.98308 -3.12944 0.103763 -22.2698 -10.571 -15.5823 4.54436 0.243278 -0.890033 -3.54162 2.07342 1.76139 -4.69138 -0.324638 5.13794 3.80897 -39.7239 36.732 8.78195 15.4327 -23.7609 23.7514 22.3032 25.8759 13.6736 -9.50262 5.18842 14.3963 72.7393 130.79 7.98308 3.12944 -0.103763 22.2698 10.571 15.5823 -4.54436 -0.243278 0.890033 3.54162 -2.07342 -1.76139 4.69138 0.324638 -5.13794 -3.80897 39.7239 -36.732 -0.350978 -0.658113 0.00403141 0.0240216 0.326933 0.65813 0 -0.339572 -0.658113 0.0039004 1.70755e-006 0.339548 0.65813 0 
-0.10135 -0.0600681 0.0335908 8.98223e-013 -3.03247e-008 -5.10957e-006 0 -0 0 0 -0 0 0 -0 0 -0.711609 0.290665 -8.51019e-015 -8.78195 -15.4327 -23.7606 -23.7519 -22.3015 -25.8763 13.6736 9.50262 -5.18842 -14.3963 -72.7393 130.79 -7.98308 -3.12944 0.103763 -22.2698 -10.571 -15.5823 4.54436 0.243278 -0.890033 -3.54162 2.07342 1.76139 -4.69138 -0.324638 5.13794 3.80897 -39.7239 36.732 8.78195 15.4327 -23.7606 23.7519 22.3015 25.8763 13.6736 -9.50262 5.18842 14.3963 72.7393 130.79 7.98308 3.12944 -0.103763 22.2698 10.571 15.5823 -4.54436 -0.243278 0.890033 3.54162 -2.07342 -1.76139 4.69138 0.324638 -5.13794 -3.80897 39.7239 -36.732 -0.352079 -0.658117 0.00404408 0.0240216 0.328034 0.658134 0 -0.340673 -0.658118 0.00391307 1.70755e-006 0.340649 0.658134 0 
-0.10135 -0.0600681 0.0335906 1.25141e-012 -3.03818e-008 -5.10957e-006 0 -0 0 0 -0 0 0 -0 0 -0.711609 0.290665 -0 -8.78195 -15.4327 -23.7606 -23.7519 -22.3015 -25.8763 13.6736 9.50262 -5.18842 -14.3963 -72.7393 130.79 -7.98308 -3.12944 0.103763 -22.2698 -10.571 -15.5823 4.54436 0.243278 -0.890033 -3.54162 2.07342 1.76139 -4.69138 -0.324638 5.13794 3.80897 -39.7239 36.732 8.78195 15.4327 -23.7606 23.7519 22.3015 25.8763 13.6736 -9.50262 5.18842 14.3963 72.7393 130.79 7.98308 3.12944 -0.103763 22.2698 10.571 15.5823 -4.54436 -0.243278 0.890033 3.54162 -2.07342 -1.76139 4.69138 0.324638 -5.13794 -3.80897 39.7239 -36.732 -0.352091 -0.658117 0.00404422 0.0240216 0.328046 0.658135 0 -0.340686 -0.658118 0.00391322 2.13443e-008 0.340663 0.658134 0 
-0.10135 -0.0600681 0.0335906 -2.0799e-012 -3.03823e-008 -5.10957e-006 0 -0 0 0 -0 0 0 -0 0 -0.711609 0.290665 -0 -8.78195 -15.4327 -23.7606 -23.7519 -22.3015 -25.8763 13.6736 9.50262 -5.18842 -14.3963 -72.7393 130.79 -7.98308 -3.12944 0.103763 -22.2698 -10.571 -15.5823 4.54436 0.243278 -0.890033 -3.54162 2.07342 1.76139 -4.69138 -0.324638 5.13794 3.80897 -39.7239 36.732 8.78195 15.4327 -23.7606 23.7519 22.3015 25.8763 13.6736 -9.50262 5.18842 14.3963 72.7393 130.79 7.98308 3.12944 -0.103763 22.2698 10.571 15.5823 -4.54436 -0.243278 0.890033 3.54162 -2.07342 -1.76139 4.69138 0.324638 -5.13794 -3.80897 39.7239 -36.732 -0.352091 -0.658117 0.00404422 0.0240216 0.328047 0.658135 0 -0.340686 -0.658118 0.00391322 1.68193e-006 0.340663 0.658134 0 
-0.10135 -0.0600681 0.0335906 1.20542e-012 -3.03823e-008 -5.10957e-006 0 -0 0 0 -0 0 0 -0 0 -0.711609 0.290665 -3.88256e-019 -8.78195 -15.4327 -23.7606 -23.7519 -22.3015 -25.8763 13.6736 9.50262 -5.18842 -14.3963 -72.7393 130.79 -7.98308 -3.12944 0.103763 -22.2698 -10.571 -15.5823 4.54436 0.243278 -0.890033 -3.54162 2.07342 1.76139 -4.69138 -0.324638 5.13794 3.80897 -39.7239 36.732 8.78195 15.4327 -23.7606 23.7519 22.3015 25.8763 13.6736 -9.50262 5.18842 14.3963 72.7393 130.79 7.98308 3.12944 -0.103763 22.2698 10.571 15.5823 -4.54436 -0.243278 0.890033 3.54162 -2.07342 -1.76139 4.69138 0.324638 -5.13794 -3.80897 39.7239 -36.732 -0.352091 -0.658117 0.00404422 0.0240216 0.328047 0.658135 0 -0.340686 -0.658118 0.00391322 1.70755e-006 0.340662 0.658134 0 
-0.10135 -0.0600681 0.0335906 7.06095e-013 -3.03823e-008 -5.10957e-006 0 -0 0 0 -0 0 0 -0 0 -0.711609 0.290665 -0 -8.78195 -15.4327 -23.7606 -23.7519 -22.3015 -25.8763 13.6736 9.50262 -5.18842 -14.3963 -72.7393 130.79 -7.98308 -3.12944 0.103763 -22.2698 -10.571 -15.5823 4.54436 0.243278 -0.890033 -3.54162 2.07342 1.76139 -4.69138 -0.324638 5.13794 3.80897 -39.7239 36.732 8.78195 15.4327 -23.7606 23.7519 22.3015 25.8763 13.6736 -9.50262 5.18842 14.3963 72.7393 130.79 7.98308 3.12944 -0.103763 22.2698 10.571 15.5823 -4.54436 -0.243278 0.890033 3.54162 -2.07342 -1.76139 4.69138 0.324638 -5.13794 -3.80897 39.7239 -36.732 -0.352091 -0.658117 0.00404422 0.0240216 0.328047 0.658135 0 -0.340686 -0.658118 0.00391322 3.41509e-008 0.340662 0.658134 0 
-0.10135 -0.0600681 0.0335906 1.87019e-013 -3.03823e-008 -5.10957e-006 0 -0 0 0 -0 0 0 -0 0 -0.711609 0.290665 -3.88256e-019 -8.78195 -15.4327 -23.7606 -23.7519 -22.3015 -25.8763 13.6736 9.50262 -5.18842 -14.3963 -72.7393 130.79 -7.98308 -3.12944 0.103763 -22.2698 -10.571 -15.5823 4.54436 0.243278 -0.890033 -3.54162 2.07342 1.76139 -4.69138 -0.324638 5.13794 3.80897 -39.7239 36.732 8.78195 15.4327 -23.7606 23.7519 22.3015 25.8763 13.6736 -9.50262 5.18842 14.3963 72.7393 130.79 7.98308 3.12944 -0.103763 22.2698 10.571 15.5823 -4.54436 -0.243278 0.890033 3.54162 -2.07342 -1.76139 4.69138 0.324638 -5.13794 -3.80897 39.7239 -36.732 -0.352091 -0.658117 0.00404422 0.0240216 0.328047 0.658135 0 -0.340686 -0.658118 0.00391322 2.3605e-006 0.340663 0.658134 0 
-0.10135 -0.0600681 0.0335906 1.16315e-012 -3.03823e-008 -5.10957e-006 0 -0 0 0 -0 0 0 -0 0 -0.711609 0.290665 -7.76513e-019 -8.78195 -15.4327 -23.7606 -23.7519 -22.3015 -25.8763 13.6736 9.50262 -5.18842 -14.3963 -72.7393 130.79 -7.98308 -3.12944 0.103763 -22.2698 -10.571 -15.5823 4.54436 0.243278 -0.890033 -3.54162 2.07342 1.76139 -4.69138 -0.324638 5.13794 3.80897 -39.7239 36.732 8.78195 15.4327 -23.7606 23.7519 22.3015 25.8763 13.6736 -9.50262 5.18842 14.3963 72.7393 130.79 7.98308 3.12944 -0.103763 22.2698 10.571 15.5823 -4.54436 -0.243278 0.890033 3.54162 -2.07342 -1.76139 4.69138 0.324638 -5.13794 -3.80897 39.7239 -36.732 -0.352091 -0.658117 0.00404422 0.0240216 0.328047 0.658135 0 -0.340686 -0.658118 0.00391322 2.41484e-006 0.340661 0.658134 0 
-0.10135 -0.0600681 0.0335906 1.49293e-012 -3.03823e-008 -5.10957e-006 0 -0 0 0 -0 0 0 -0 0 -0.711609 0.290665 -0 -8.78195 -15.4327 -23.7606 -23.7519 -22.3015 -25.8763 13.6736 9.50262 -5.18842 -14.3963 -72.7393 130.79 -7.98308 -3.12944 0.103763 -22.2698 -10.571 -15.5823 4.54436 0.243278 -0.890033 -3.54162 2.07342 1.76139 -4.69138 -0.324638 5.13794 3.80897 -39.7239 36.732 8.78195 15.4327 -23.7606 23.7519 22.3015 25.8763 13.6736 -9.50262 5.18842 14.3963 72.7393 130.79 7.98308 3.12944 -0.103763 22.2698 10.571 15.5823 -4.54436 -0.243278 0.890033 3.54162 -2.07342 -1.76139 4.69138 0.324638 -5.13794 -3.80897 39.7239 -36.732 -0.352091 -0.658117 0.00404422 0.0240216 0.328047 0.658135 0 -0.340686 -0.658118 0.00391322 2.41484e-006 0.340661 0.658134 0 
-0.10135 -0.0600681 0.0335906 -1.98734e-012 -3.03823e-008 -5.10957e-006 0 -0 0 0 -0 0 0 -0 0 -0.711609 0.290665 -0 -8.78195 -15.4327 -23.7606 -23.7519 -22.3015 -25.8763 13.6736 9.50262 -5.18842 -14.3963 -72.7393 130.79 -7.98308 -3.12944 0.103763 -22.2698 -10.571 -15.5823 4.54436 0.243278 -0.890033 -3.54162 2.07342 1.76139 -4.69138 -0.324638 5.13794 3.80897 -39.7239 36.732 8.78195 15.4327 -23.7606 23.7519 22.3015 25.8763 13.6736 -9.50262 5.18842 14.3963 72.7393 130.79 7.98308 3.12944 -0.103763 22.2698 10.571 15.5823 -4.54436 -0.243278 0.890033 3.54162 -2.07342 -1.76139 4.69138 0.324638 -5.13794 -3.80897 39.7239 -36.732 -0.352091 -0.658117 0.00404422 0.0240216 0.328047 0.658135 0 -0.340688 -0.658118 0.00391324 1.74127e-006 0.340662 0.658134 0 
